<svg xmlns="http://www.w3.org/2000/svg" xmlns:xlink="http://www.w3.org/1999/xlink" fill="none" version="1.1" width="32" height="32" viewBox="0 0 32 32"><defs><filter id="master_svg0_278_51503" filterUnits="objectBoundingBox" color-interpolation-filters="sRGB" x="0" y="0" width="1" height="1"><feFlood flood-opacity="0" result="BackgroundImageFix"/><feBlend mode="normal" in="SourceGraphic" in2="BackgroundImageFix" result="shape"/><feGaussianBlur in="BackgroundImageFix" stdDeviation="1.3333334922790527"/><feComposite in2="SourceAlpha" operator="in" result="effect1_foregroundBlur"/><feBlend mode="normal" in="SourceGraphic" in2="effect1_foregroundBlur" result="shape"/></filter><linearGradient x1="0.07353696972131729" y1="0.12899449467658997" x2="0.9907095821060244" y2="0.9383787344260006" id="master_svg1_93_40276"><stop offset="0%" stop-color="#5C5CFF" stop-opacity="1"/><stop offset="100%" stop-color="#AE5CFF" stop-opacity="1"/></linearGradient></defs><g><g filter="url(#master_svg0_278_51503)"><rect x="0" y="0" width="32" height="32" rx="16" fill="#F0F2F5" fill-opacity="0"/></g><g><g><path d="M31.843111328125,14.751C31.315411328125,7.18121,25.497411328125,1.04691,17.966011328125,0.119698C10.434711328125,-0.807512,3.302541328125,3.73244,0.954596328125,10.9482C0.345662328125,12.8248,1.732821328125,14.751,3.705641328125,14.751C4.950051328125,14.7517,6.055631328125,13.9569,6.451401328125,12.7772C7.497331328125,9.65101,10.504411328125,3.91401,18.482011328125,3.91401Q29.445911328125,3.91401,31.843111328125,14.751ZM9.127681328125,17.3314L9.127681328125,13.0862Q9.127681328125,13.0022,9.144081328125,12.9198Q9.160481328125,12.8373,9.192641328125,12.7597Q9.224801328125,12.682,9.271501328125,12.6122Q9.318191328125,12.5423,9.377621328125,12.4828Q9.437051328125,12.4234,9.506931328125,12.3767Q9.576811328125,12.33,9.654461328125,12.2979Q9.732111328125,12.2657,9.814541328125,12.2493Q9.896971328125,12.2329,9.981021328125,12.2329L11.049211328125,12.2329Q11.133211328125,12.2329,11.215711328125,12.2493Q11.298111328125,12.2657,11.375811328125,12.2979Q11.453411328125,12.33,11.523311328125,12.3767Q11.593211328125,12.4234,11.652611328125,12.4828Q11.712011328125,12.5423,11.758711328125,12.6122Q11.805411328125,12.682,11.837611328125,12.7597Q11.869711328125,12.8373,11.886111328125,12.9198Q11.902511328125,13.0022,11.902511328125,13.0862L11.902511328125,17.3314Q11.902511328125,17.4154,11.886111328125,17.4978Q11.869711328125,17.5803,11.837611328125,17.6579Q11.805411328125,17.7356,11.758711328125,17.8055Q11.712011328125,17.8753,11.652611328125,17.9348Q11.593211328125,17.9942,11.523311328125,18.0409Q11.453411328125,18.0876,11.375811328125,18.1197Q11.298111328125,18.1519,11.215711328125,18.1683Q11.133211328125,18.1847,11.049211328125,18.1847L9.981021328125,18.1847Q9.896971328125,18.1847,9.814541328125,18.1683Q9.732111328125,18.1519,9.654461328125,18.1197Q9.576811328125,18.0876,9.506931328125,18.0409Q9.437051328125,17.9942,9.377621328125,17.9348Q9.318191328125,17.8753,9.271501328125,17.8055Q9.224801328125,17.7356,9.192641328125,17.6579Q9.160481328125,17.5803,9.144081328125,17.4978Q9.127681328125,17.4154,9.127681328125,17.3314ZM17.273611328125,17.3295C17.272611328125,17.8015,17.654911328125,18.1847,18.126911328125,18.1847L19.408411328125,18.1847C19.879011328125,18.1847,20.260711328125,17.8038,20.261811328125,17.3332L20.266411328125,15.2107L20.266411328125,15.2069L20.261811328125,13.0844C20.260711328125,12.6138,19.879011328125,12.2329,19.408411328125,12.2329L18.126911328125,12.2329C17.654911328125,12.2329,17.272611328125,12.6161,17.273611328125,13.0881L17.278211328125,15.2069L17.278211328125,15.2107L17.273611328125,17.3295ZM13.574711328125,28.0523C21.552211328125,28.0523,24.559311328125,22.3153,25.605811328125,19.1897C26.001411328125,18.0098,27.107111328125,17.215,28.351511328125,17.2158C30.323811328125,17.2158,31.711511328125,19.1416,31.102611328125,21.0181C30.552411328125,22.7189,29.716211328125,24.3134,28.629811328125,25.733L30.137611328125,30.2235L24.775211328125,29.3432C14.645911328125,36.0484,1.048779328125,29.3346,0.214111328125,17.2158Q2.611231328125,28.0523,13.574711328125,28.0523Z" fill-rule="evenodd" fill="url(#master_svg1_93_40276)" fill-opacity="1"/></g></g></g></svg>